<?xml version="1.0" encoding="UTF-8"?>
<svg width="1280" height="800" viewBox="0 0 1280 800" fill="none" xmlns="http://www.w3.org/2000/svg">
  <!-- Browser Chrome -->
  <rect width="1280" height="800" fill="#F9FAFB"/>
  <rect width="1280" height="60" fill="#FFFFFF"/>
  <line x1="0" y1="60" x2="1280" y2="60" stroke="#E5E7EB"/>
  
  <!-- Browser UI -->
  <rect x="20" y="15" width="200" height="30" rx="15" fill="#F3F4F6"/>
  <rect x="240" y="15" width="800" height="30" rx="5" fill="#F3F4F6"/>
  <text x="250" y="35" font-family="Arial" font-size="14" fill="#6B7280">chat.openai.com</text>
  
  <!-- Semantest Sidebar -->
  <rect x="0" y="60" width="300" height="740" fill="#FFFFFF"/>
  <line x1="300" y1="60" x2="300" y2="800" stroke="#E5E7EB"/>
  
  <!-- Sidebar Header -->
  <rect x="0" y="60" width="300" height="60" fill="#1E40AF"/>
  <text x="20" y="95" font-family="Arial" font-size="18" font-weight="bold" fill="white">Semantest</text>
  
  <!-- Active Search Bar -->
  <rect x="20" y="140" width="260" height="35" rx="5" fill="#FFFFFF" stroke="#1E40AF" stroke-width="2"/>
  <text x="30" y="160" font-family="Arial" font-size="14" fill="#374151">🔍 Python error handling</text>
  <rect x="240" y="150" width="30" height="16" rx="8" fill="#1E40AF"/>
  <text x="255" y="161" font-family="Arial" font-size="10" font-weight="bold" fill="white" text-anchor="middle">23</text>
  
  <!-- Search Filters -->
  <g transform="translate(20, 185)">
    <rect x="0" y="0" width="60" height="25" rx="12" fill="#EEF2FF"/>
    <text x="30" y="17" font-family="Arial" font-size="11" fill="#1E40AF" text-anchor="middle">Code</text>
    
    <rect x="65" y="0" width="80" height="25" rx="12" fill="#F3F4F6"/>
    <text x="105" y="17" font-family="Arial" font-size="11" fill="#6B7280" text-anchor="middle">Last 7 days</text>
    
    <rect x="150" y="0" width="70" height="25" rx="12" fill="#F3F4F6"/>
    <text x="185" y="17" font-family="Arial" font-size="11" fill="#6B7280" text-anchor="middle">All folders</text>
  </g>
  
  <!-- Search Results -->
  <text x="20" y="235" font-family="Arial" font-size="12" fill="#6B7280">Found 23 results in 0.3 seconds</text>
  
  <g transform="translate(20, 250)">
    <!-- Result 1 -->
    <rect x="0" y="0" width="260" height="80" rx="5" fill="#FEF3C7" stroke="#F59E0B"/>
    <text x="10" y="20" font-family="Arial" font-size="13" font-weight="bold" fill="#374151">Debug: Python TypeError</text>
    <text x="10" y="38" font-family="Arial" font-size="11" fill="#6B7280">📁 Code Help • 2 days ago</text>
    <rect x="10" y="48" width="240" height="20" rx="3" fill="#FEF3C7"/>
    <text x="15" y="61" font-family="Arial" font-size="11" fill="#92400E">...to handle Python error handling in async...</text>
    
    <!-- Result 2 -->
    <rect x="0" y="90" width="260" height="80" rx="5" fill="#F9FAFB" stroke="#E5E7EB"/>
    <text x="10" y="110" font-family="Arial" font-size="13" font-weight="bold" fill="#374151">Best Practices: Error Handling</text>
    <text x="10" y="128" font-family="Arial" font-size="11" fill="#6B7280">📁 Templates • 5 days ago</text>
    <rect x="10" y="138" width="240" height="20" rx="3" fill="#F3F4F6"/>
    <text x="15" y="151" font-family="Arial" font-size="11" fill="#6B7280">...comprehensive Python error handling guide...</text>
    
    <!-- Result 3 -->
    <rect x="0" y="180" width="260" height="80" rx="5" fill="#F9FAFB" stroke="#E5E7EB"/>
    <text x="10" y="200" font-family="Arial" font-size="13" font-weight="bold" fill="#374151">Client API: Exception Handling</text>
    <text x="10" y="218" font-family="Arial" font-size="11" fill="#6B7280">📁 Work Projects • 1 week ago</text>
    <rect x="10" y="228" width="240" height="20" rx="3" fill="#F3F4F6"/>
    <text x="15" y="241" font-family="Arial" font-size="11" fill="#6B7280">...implement Python error handling for API...</text>
    
    <!-- More results indicator -->
    <text x="130" y="290" font-family="Arial" font-size="12" fill="#6B7280" text-anchor="middle">↓ 20 more results</text>
  </g>
  
  <!-- ChatGPT Interface with Highlighted Content -->
  <rect x="300" y="60" width="980" height="740" fill="#FFFFFF"/>
  
  <!-- Chat Header -->
  <rect x="300" y="60" width="980" height="60" fill="#FFFFFF"/>
  <text x="320" y="95" font-family="Arial" font-size="16" font-weight="bold" fill="#374151">Debug: Python TypeError</text>
  <line x1="300" y1="120" x2="1280" y2="120" stroke="#E5E7EB"/>
  
  <!-- Chat Content with Search Highlights -->
  <g transform="translate(340, 150)">
    <!-- User Message -->
    <rect x="300" y="0" width="600" height="100" rx="10" fill="#F3F4F6"/>
    <text x="320" y="30" font-family="Arial" font-size="14" fill="#374151">I'm getting a TypeError in my</text>
    <rect x="498" y="17" width="50" height="18" fill="#FEF08A"/>
    <text x="500" y="30" font-family="Arial" font-size="14" fill="#374151" font-weight="bold">Python</text>
    <text x="550" y="30" font-family="Arial" font-size="14" fill="#374151">async function.</text>
    <text x="320" y="50" font-family="Arial" font-size="14" fill="#374151">The</text>
    <rect x="348" y="37" width="100" height="18" fill="#FEF08A"/>
    <text x="350" y="50" font-family="Arial" font-size="14" fill="#374151" font-weight="bold">error handling</text>
    <text x="450" y="50" font-family="Arial" font-size="14" fill="#374151">seems to not catch this specific</text>
    <text x="320" y="70" font-family="Arial" font-size="14" fill="#374151">exception. How can I fix this?</text>
    
    <!-- AI Response with Highlights -->
    <rect x="0" y="120" width="700" height="280" rx="10" fill="#EEF2FF"/>
    <text x="20" y="150" font-family="Arial" font-size="14" fill="#374151">I'll help you fix the TypeError in your</text>
    <rect x="248" y="137" width="50" height="18" fill="#FEF08A"/>
    <text x="250" y="150" font-family="Arial" font-size="14" fill="#374151" font-weight="bold">Python</text>
    <text x="300" y="150" font-family="Arial" font-size="14" fill="#374151">async function.</text>
    <text x="20" y="170" font-family="Arial" font-size="14" fill="#374151">Here's a comprehensive approach to</text>
    <rect x="268" y="157" width="100" height="18" fill="#FEF08A"/>
    <text x="270" y="170" font-family="Arial" font-size="14" fill="#374151" font-weight="bold">error handling</text>
    <text x="370" y="170" font-family="Arial" font-size="14" fill="#374151">:</text>
    
    <rect x="20" y="190" width="660" height="180" rx="5" fill="#F3F4F6"/>
    <text x="30" y="210" font-family="monospace" font-size="12" fill="#374151">async def safe_function():</text>
    <text x="30" y="230" font-family="monospace" font-size="12" fill="#374151">    try:</text>
    <text x="30" y="250" font-family="monospace" font-size="12" fill="#374151">        # Your async code here</text>
    <text x="30" y="270" font-family="monospace" font-size="12" fill="#374151">        result = await risky_operation()</text>
    <text x="30" y="290" font-family="monospace" font-size="12" fill="#374151">    except TypeError as e:</text>
    <text x="30" y="310" font-family="monospace" font-size="12" fill="#374151">        # Handle TypeError specifically</text>
    <text x="30" y="330" font-family="monospace" font-size="12" fill="#374151">        logger.error(f"Type error: {e}")</text>
    <text x="30" y="350" font-family="monospace" font-size="12" fill="#374151">        return None</text>
  </g>
  
  <!-- Search Navigation -->
  <rect x="1150" y="80" width="100" height="30" rx="15" fill="#1E40AF"/>
  <text x="1175" y="100" font-family="Arial" font-size="12" fill="white">← Previous</text>
  
  <rect x="1150" y="120" width="100" height="30" rx="15" fill="#1E40AF"/>
  <text x="1185" y="140" font-family="Arial" font-size="12" fill="white">Next →</text>
  
  <!-- Search Stats Popup -->
  <rect x="900" y="200" width="300" height="120" rx="8" fill="#374151"/>
  <path d="M 1050 200 L 1065 180 L 1080 200" fill="#374151"/>
  <text x="920" y="230" font-family="Arial" font-size="14" font-weight="bold" fill="white">Search Statistics</text>
  <text x="920" y="255" font-family="Arial" font-size="12" fill="#D1D5DB">Total conversations: 156</text>
  <text x="920" y="275" font-family="Arial" font-size="12" fill="#D1D5DB">Matching conversations: 23</text>
  <text x="920" y="295" font-family="Arial" font-size="12" fill="#D1D5DB">Search time: 0.3 seconds</text>
</svg>